<?xml version="1.0" encoding="UTF-8" standalone="no"?>
<svg width="36px" height="36px" viewBox="0 0 36 36" version="1.1" xmlns="http://www.w3.org/2000/svg" xmlns:xlink="http://www.w3.org/1999/xlink">
    <!-- Generator: Sketch 3.8.3 (29802) - http://www.bohemiancoding.com/sketch -->
    <title>ck_computer</title>
    <desc>Created with Sketch.</desc>
    <defs></defs>
    <g id="Page-1" stroke="none" stroke-width="1" fill="none" fill-rule="evenodd">
        <g id="ck_computer">
            <path d="M18,34 C26.8365564,34 34,26.8365564 34,18 C34,9.16344357 26.8365564,2 18,2 C9.16344357,2 2,9.16344357 2,18 C2,26.8365564 9.16344357,34 18,34 Z" id="Oval-1-copy" fill="#A6C024"></path>
            <g id="1465665869_pc-01" transform="translate(11.000000, 12.000000)" fill="#FFFFFF">
                <g id="Layer_1">
                    <path d="M13.5621181,0.370865785 L0.72483192,0.370865785 C0.447516764,0.370865785 0.235559027,0.60905309 0.235559027,0.887089222 L0.235559027,11.0684644 C0.235559027,11.3460478 0.447516764,11.5837822 0.72483192,11.5837822 L4.80377022,11.5837822 L4.80377022,12.0031006 C4.80377022,12.4794752 5.18910666,12.8743408 5.66657891,12.8743408 L8.70342949,12.8743408 C9.18044787,12.8743408 9.57395399,12.4794752 9.57395399,12.0031006 L9.57395399,11.5837822 L13.5621181,11.5837822 C13.8394332,11.5837822 14.0613761,11.3465006 14.0613761,11.0684644 L14.0613761,0.887089222 C14.0609223,0.609505918 13.8394332,0.370865785 13.5621181,0.370865785 L13.5621181,0.370865785 Z M6.60427631,10.2212241 C6.60427631,9.88386751 6.87932211,9.60809552 7.21881759,9.60809552 C7.5592208,9.60809552 7.83381273,9.88341468 7.83381273,10.2212241 C7.83381273,10.5608447 7.5592208,10.8343526 7.21881759,10.8343526 C6.87932211,10.8348054 6.60427631,10.5608447 6.60427631,10.2212241 L6.60427631,10.2212241 Z M12.8332013,8.42576271 L1.46327997,8.42576271 L1.46327997,1.47168962 L12.8332013,1.47168962 L12.8332013,8.42576271 L12.8332013,8.42576271 Z" id="Shape"></path>
                </g>
            </g>
        </g>
    </g>
</svg>