<?xml version="1.0" encoding="UTF-8" standalone="no"?>
<svg width="512px" height="512px" viewBox="0 0 512 512" version="1.1" xmlns="http://www.w3.org/2000/svg" xmlns:xlink="http://www.w3.org/1999/xlink" xmlns:sketch="http://www.bohemiancoding.com/sketch/ns">
    <!-- Generator: Sketch 3.0.1 (7597) - http://www.bohemiancoding.com/sketch -->
    <title>xxhdpi</title>
    <description>Created with Sketch.</description>
    <defs></defs>
    <g id="Page-1" stroke="none" stroke-width="1" fill="none" fill-rule="evenodd" sketch:type="MSPage">
        <g id="xxhdpi" sketch:type="MSArtboardGroup">
            <path d="M256,502 C391.862055,502 502,391.862055 502,256 C502,120.137945 391.862055,10 256,10 C120.137945,10 10,120.137945 10,256 C10,391.862055 120.137945,502 256,502 Z" id="Oval-1-copy-2" fill="#418DD9" sketch:type="MSShapeGroup"></path>
            <g id="Oval-5-+-Oval-6-+-Oval-7" sketch:type="MSLayerGroup" transform="translate(135.000000, 174.000000)">
                <g id="Group" transform="translate(13.000000, 45.000000)" sketch:type="MSShapeGroup">
                    <path d="M36.8078176,87.8688525 C59.9152054,104.708634 90.1950612,120 110.178919,120 C141.414547,120 190.249657,85.0956771 209,64.2391304 C193.90362,32.887607 144.632533,-2.31698718e-15 110.178923,-2.31698718e-15 C79.2725832,-2.31698718e-15 29.2407617,30.8670421 10.8222186,58.6956522 C4.47222677,68.2898663 10.8222186,54.9587585 10.8222186,64.2391304 C17.0482809,70.1749377 25.9237496,79.9369594 36.8078176,87.8688525 Z" id="Oval-5" stroke="#FFFFFF" stroke-width="18"></path>
                    <ellipse id="Oval-6" stroke="#FFFFFF" stroke-width="17" fill="#FFFFFF" cx="108.5" cy="61" rx="24.5" ry="43"></ellipse>
                    <ellipse id="Oval-7" fill="#418DD9" cx="108.5" cy="61" rx="16.5" ry="19"></ellipse>
                    <ellipse id="Oval-8" fill="#FFFFFF" cx="109.5" cy="61.5" rx="10.5" ry="11.5"></ellipse>
                </g>
                <g id="eyebrows-" fill="#FFFFFF" sketch:type="MSShapeGroup">
                    <rect id="Rectangle-1" transform="translate(17.000000, 62.500000) rotate(-42.000000) translate(-17.000000, -62.500000) " x="9" y="46" width="16" height="33"></rect>
                    <rect id="Rectangle-2" transform="translate(225.000000, 61.500000) rotate(-313.000000) translate(-225.000000, -61.500000) " x="217" y="45" width="16" height="33"></rect>
                    <rect id="Rectangle-3" transform="translate(155.000000, 18.500000) rotate(16.000000) translate(-155.000000, -18.500000) " x="147" y="2" width="16" height="33"></rect>
                    <rect id="Rectangle-4" transform="translate(105.000000, 18.500000) rotate(-10.000000) translate(-105.000000, -18.500000) " x="97" y="2" width="16" height="33"></rect>
                    <rect id="Rectangle-5" transform="translate(57.000000, 36.500000) rotate(-30.000000) translate(-57.000000, -36.500000) " x="49" y="20" width="16" height="33"></rect>
                    <rect id="Rectangle-6" transform="translate(196.000000, 38.500000) rotate(38.000000) translate(-196.000000, -38.500000) " x="188" y="22" width="16" height="33"></rect>
                </g>
            </g>
        </g>
    </g>
</svg>