<?xml version="1.0" encoding="UTF-8" standalone="no"?>
<svg width="36px" height="36px" viewBox="0 0 36 36" version="1.1" xmlns="http://www.w3.org/2000/svg" xmlns:xlink="http://www.w3.org/1999/xlink" xmlns:sketch="http://www.bohemiancoding.com/sketch/ns">
    <!-- Generator: Sketch 3.0.1 (7597) - http://www.bohemiancoding.com/sketch -->
    <title>36x36</title>
    <description>Created with Sketch.</description>
    <defs></defs>
    <g id="Page-1" stroke="none" stroke-width="1" fill="none" fill-rule="evenodd" sketch:type="MSPage">
        <g id="36x36" sketch:type="MSArtboardGroup">
            <path d="M18,34 C26.8365564,34 34,26.8365564 34,18 C34,9.16344357 26.8365564,2 18,2 C9.16344357,2 2,9.16344357 2,18 C2,26.8365564 9.16344357,34 18,34 Z" id="Oval-1-copy-2" fill="#323232" sketch:type="MSShapeGroup"></path>
            <g id="1439773936_trash" sketch:type="MSLayerGroup" transform="translate(10.000000, 9.000000)" fill="#FFFFFF">
                <g id="trash" sketch:type="MSShapeGroup">
                    <path d="M15.9885714,3.8356875 C15.9337143,2.9525625 15.196,2.2516875 14.2857143,2.2516875 L12.5714286,2.2516875 L12.5714286,1.6891875 L12.5714286,1.6880625 C12.5714286,0.756 11.8034286,0.0005625 10.8571429,0.0005625 L5.14285714,0.0005625 C4.196,0.0005625 3.42857143,0.756 3.42857143,1.6880625 L3.42857143,1.688625 L3.42857143,2.251125 L1.71428571,2.251125 C0.802857143,2.251125 0.0657142857,2.952 0.0108571429,3.835125 L0,3.835125 L0,4.5005625 L0,5.0630625 C0,5.6840625 0.512,6.1880625 1.14285714,6.1880625 L1.14285714,6.1880625 L1.14285714,15.7505625 C1.14285714,16.993125 2.16628571,18.0005625 3.42857143,18.0005625 L12.5714286,18.0005625 C13.8337143,18.0005625 14.8571429,16.993125 14.8571429,15.7505625 L14.8571429,6.1880625 C15.488,6.1880625 16,5.6840625 16,5.0630625 L16,4.5005625 L16,3.8356875 L15.9885714,3.8356875 L15.9885714,3.8356875 Z M4.57142857,1.688625 C4.57142857,1.3775625 4.82685714,1.126125 5.14285714,1.126125 L10.8571429,1.126125 C11.1731429,1.126125 11.4285714,1.3775625 11.4285714,1.688625 L11.4285714,2.251125 L4.57142857,2.251125 L4.57142857,1.688625 L4.57142857,1.688625 Z M13.7142857,15.751125 C13.7142857,16.371 13.2011429,16.876125 12.5714286,16.876125 L3.42857143,16.876125 C2.79828571,16.876125 2.28571429,16.371 2.28571429,15.751125 L2.28571429,6.188625 L13.7142857,6.188625 L13.7142857,15.751125 L13.7142857,15.751125 Z M14.8571429,4.5005625 L14.8571429,5.0630625 L1.14285714,5.0630625 L1.14285714,4.5005625 L1.14285714,3.938625 C1.14285714,3.6275625 1.39828571,3.376125 1.71428571,3.376125 L14.2857143,3.376125 C14.6017143,3.376125 14.8571429,3.6275625 14.8571429,3.938625 L14.8571429,4.5005625 L14.8571429,4.5005625 Z" id="Shape"></path>
                    <path d="M5,15.753375 L6.14285714,15.753375 C6.45885714,15.753375 6.71428571,15.5019375 6.71428571,15.190875 L6.71428571,7.878375 C6.71428571,7.5673125 6.45885714,7.315875 6.14285714,7.315875 L5,7.315875 C4.684,7.315875 4.42857143,7.5673125 4.42857143,7.878375 L4.42857143,15.190875 C4.42857143,15.5019375 4.684,15.753375 5,15.753375 L5,15.753375 Z M5,7.8778125 L6.14285714,7.8778125 L6.14285714,15.1903125 L5,15.1903125 L5,7.8778125 L5,7.8778125 Z" id="Shape"></path>
                    <path d="M9.85714286,15.753375 L11,15.753375 C11.316,15.753375 11.5714286,15.5019375 11.5714286,15.190875 L11.5714286,7.878375 C11.5714286,7.5673125 11.316,7.315875 11,7.315875 L9.85714286,7.315875 C9.54114286,7.315875 9.28571429,7.5673125 9.28571429,7.878375 L9.28571429,15.190875 C9.28571429,15.5019375 9.54114286,15.753375 9.85714286,15.753375 L9.85714286,15.753375 Z M9.85714286,7.8778125 L11,7.8778125 L11,15.1903125 L9.85714286,15.1903125 L9.85714286,7.8778125 L9.85714286,7.8778125 Z" id="Shape"></path>
                </g>
            </g>
        </g>
    </g>
</svg>